<?xml version="1.0" standalone="no"?><!DOCTYPE svg PUBLIC "-//W3C//DTD SVG 1.1//EN" "http://www.w3.org/Graphics/SVG/1.1/DTD/svg11.dtd"><svg t="1742365730402" class="icon" viewBox="0 0 1024 1024" version="1.1" xmlns="http://www.w3.org/2000/svg" p-id="3515" width="64" height="64" xmlns:xlink="http://www.w3.org/1999/xlink"><path d="M949.975565 949.349813c-11.625782 11.636015-30.500665 11.636015-42.126446 0l-84.45653-84.46574c-29.102828 20.681018-64.465221 33.126468-102.864786 33.126468-98.393961 0-178.137143-79.753415-178.137143-178.12691 0-98.384751 79.743182-178.127933 178.137143-178.127933 98.356099 0 178.118724 79.744205 178.118724 178.127933 0 38.417985-12.44545 73.77219-33.127492 102.864786l84.457554 84.46574C961.620789 918.850172 961.620789 937.714821 949.975565 949.349813L949.975565 949.349813zM609.035522 472.612944c-1.677199-13.452383-12.669554-24.015973-26.569122-24.015973L201.374892 448.596971c-15.017018 0-27.202549 12.184507-27.202549 27.230178 0 15.017018 12.184507 27.211758 27.202549 27.211758l356.38685 0c-20.62576 15.286148-38.064944 34.124192-53.752228 54.440913L201.374892 557.479821c-15.017018 0-27.202549 12.175297-27.202549 27.211758 0 15.027252 12.184507 27.211758 27.202549 27.211758l270.121114 0c-15.166421 33.704636-24.891923 70.427002-24.891923 109.852944 0 88.816838 43.094494 166.939103 108.790752 216.778208l-381.222491 0c-60.142775 0-108.882849-48.749284-108.882849-108.87364L65.289494 394.594033l135.675052 0c0.74599 0 1.379417-0.381693 2.105964-0.428765L364.699678 394.165268c15.017018 0 27.220968-12.20395 27.220968-27.230178L391.920646 94.755084c0-0.642636-0.390903-1.108241-0.428765-1.724271L391.491881 67.552535l272.619004 0c60.124356 0 108.86443 48.730864 108.86443 108.85522l0 277.845029c-17.327644-3.447519-35.156708-5.393847-53.472865-5.393847-39.405475 0-76.649727 8.719592-110.465904 23.765263L609.036545 472.612944zM153.752268 719.239971l178.77057 0c16.451694 0 29.792537-13.33982 29.792537-29.800723 0-16.451694-13.340843-29.791513-29.792537-29.791513L153.752268 659.647735c-16.470113 0-29.809933 13.33982-29.809933 29.791513S137.282155 719.239971 153.752268 719.239971L153.752268 719.239971zM630.479927 182.909843 451.709357 182.909843c-16.471137 0-29.810956 13.33982-29.810956 29.791513 0 16.460904 13.33982 29.801746 29.810956 29.801746l178.77057 0c16.471137 0 29.791513-13.340843 29.791513-29.801746C660.27144 196.250686 646.951063 182.909843 630.479927 182.909843L630.479927 182.909843zM630.479927 302.096363 451.709357 302.096363c-16.471137 0-29.810956 13.340843-29.810956 29.791513 0 16.451694 13.33982 29.801746 29.810956 29.801746l178.77057 0c16.471137 0 29.791513-13.350053 29.791513-29.801746C660.27144 315.437206 646.951063 302.096363 630.479927 302.096363L630.479927 302.096363zM348.117001 347.501482 153.342945 347.501482l-0.447185 0.465604L69.164754 347.967086 347.669816 65.922409l0 73.473385c0 3.335978 0.89437 6.40999 1.90028 9.4093l-1.453095 1.443885L348.117001 347.501482 348.117001 347.501482zM302.730301 302.096363M669.662321 604.032066 669.662321 604.032066c-7.78736 3.054569-15.035438 6.875594-21.407566 11.326976-6.894014 4.713348-13.246699 9.558703-18.85544 15.418154l0 0 0 0c-5.868661 5.980201-11.086499 12.221346-15.557324 18.85544l0 0.260943c-4.564969 6.613628-8.403391 13.620206-11.440563 21.388123-2.571568 5.226025 0 11.468193 5.607718 13.880125 5.347798 2.301416 11.718903-0.251733 13.862729-5.729491 2.682086-6.232958 5.887081-12.222369 9.79918-17.84032 3.818979-5.598508 8.030907-10.815323 12.744255-15.529695 4.862751-4.592598 10.210549-9.166777 15.818267-12.994965 5.607718-3.707438 11.718903-6.875594 17.570167-9.42772 5.477758-2.422166 8.011464-8.664334 5.607718-14.253632C681.363827 604.032066 675.010119 601.479941 669.662321 604.032066L669.662321 604.032066 669.662321 604.032066zM834.478064 709.49605 834.478064 709.49605c-5.850242 0-10.694573 4.843308-10.694573 10.954493 0 13.629415-2.552126 27.556613-7.899924 40.067554l-0.260943 0.512676c-5.086855 12.231579-12.464893 23.698748-22.674419 33.628912-9.949606 10.061147-21.63167 17.579377-34.020838 22.674419-12.595876 5.469572-26.345018 8.030907-40.113603 8.030907-5.981225 0-10.694573 4.956895-10.694573 10.815323 0 5.860475 4.713348 10.703783 10.694573 10.703783 16.302291 0 32.865525-3.176342 48.422849-9.55768 15.017018-6.242168 28.897144-15.277962 41.007973-27.519774 11.979846-11.839653 20.998243-25.851784 27.127847-40.365336l0.260943-0.763386c6.483668-15.296381 9.688663-31.915897 9.688663-48.228421C845.321016 714.340381 840.607668 709.49605 834.478064 709.49605L834.478064 709.49605 834.478064 709.49605z" p-id="3516"></path></svg>