<?xml version="1.0" standalone="no"?><!DOCTYPE svg PUBLIC "-//W3C//DTD SVG 1.1//EN" "http://www.w3.org/Graphics/SVG/1.1/DTD/svg11.dtd"><svg t="1730872729734" class="icon" viewBox="0 0 1024 1024" version="1.1" xmlns="http://www.w3.org/2000/svg" p-id="10632" xmlns:xlink="http://www.w3.org/1999/xlink" width="64" height="64"><path d="M877.8 877.8V585.2H658.2v292.6H365.8V585.2H146.2v292.6H0V1024h1024v-146.2zM1024 326L862 24c0-13.2-10.8-24-24-24H186c-13.2 0-24 10.8-24 24L2 326c0 13.2-2 24-2 24 0 70.6 57.4 128 128 128s128-57.4 128-128c0 70.6 57.4 128 128 128s128-57.4 128-128c0 70.6 57.4 128 128 128s128-57.4 128-128c0 70.6 57.4 128 128 128s128-57.4 128-128v-24z" p-id="10633"></path></svg>